<?xml version="1.0" encoding="utf-8"?>
<!-- Generator: Adobe Illustrator 20.1.0, SVG Export Plug-In . SVG Version: 6.00 Build 0)  -->
<svg version="1.1" id="Layer_1" xmlns="http://www.w3.org/2000/svg" xmlns:xlink="http://www.w3.org/1999/xlink" x="0px" y="0px"
	 viewBox="0 0 76.9 67.4" style="enable-background:new 0 0 76.9 67.4;" xml:space="preserve">
<style type="text/css">
	.st0{fill:#288DC0;}
</style>
<path class="st0" d="M2,37.8l20.1,9c0.4,0.2,0.8,0.1,1.1-0.2l19.2-16.9L65.1,10c0.9-0.8,2.2,0.5,1.4,1.4l-18,20.5L32.7,50
	c-0.4,0.5-0.3,1.2,0.2,1.5l24.2,15.2c0.6,0.4,1.3,0.1,1.5-0.6L76.8,1.3c0.2-0.8-0.6-1.5-1.4-1.2L1.9,35.9C1.2,36.3,1.2,37.4,2,37.8z
	"/>
<path class="st0" d="M38,59.4l-9.3,6.4c-0.8,0.5-1.8-0.2-1.5-1.1l3.3-10.1c0.2-0.6,0.9-0.9,1.5-0.5l6,3.8C38.6,58.1,38.6,59,38,59.4
	z"/>
<polyline class="st0" points="0,36.9 42.3,29.7 41,30.9 "/>
<polyline class="st0" points="47.4,33.3 48.5,31.9 58.2,67.4 "/>
</svg>
